PathFileType	4	(X/Y/Z)	16_2_103_p1_0-486_filt_butterworth.trc
DataRate	CameraRate	NumFrames	NumMarkers	Units	OrigDataRate	OrigDataStartFrame	OrigNumFrames
60.0	60.0	5	27	m	60.0	303	486
Frame#	Time	RHip			RKnee			RAnkle			RBigToe			RSmallToe			RHeel			LHip			LKnee			LAnkle			LBigToe			LSmallToe			LHeel			Neck			Head			Nose			RShoulder			RElbow			RWrist			RThumb			RIndex			RPinky			LShoulder			LElbow			LWrist			LThumb			LIndex			LPinky			
		X1	Y1	Z1	X2	Y2	Z2	X3	Y3	Z3	X4	Y4	Z4	X5	Y5	Z5	X6	Y6	Z6	X7	Y7	Z7	X8	Y8	Z8	X9	Y9	Z9	X10	Y10	Z10	X11	Y11	Z11	X12	Y12	Z12	X13	Y13	Z13	X14	Y14	Z14	X15	Y15	Z15	X16	Y16	Z16	X17	Y17	Z17	X18	Y18	Z18	X19	Y19	Z19	X20	Y20	Z20	X21	Y21	Z21	X22	Y22	Z22	X23	Y23	Z23	X24	Y24	Z24	X25	Y25	Z25	X26	Y26	Z26	X27	Y27	Z27	
303	5.05	0.31019919966497783	0.8949174780159108	0.5593074415278565	0.29798855611098723	0.45340640676571486	0.6629103821401469	0.2771940347456026	0.03812880872683703	0.72332330257314	0.24109608277300337	0.07000351245063324	0.43636416193887134	0.30922030868362876	0.06008769931121066	0.4680348796619385	0.24764781007593384	-0.01710599309286999	0.7923717707074899	0.09994057102340301	0.9044061831200462	0.5593554906702598	0.09003710906029805	0.47000962831693865	0.6610792218999859	0.10496520078985083	0.05081000230237546	0.7254485465694204	0.07042210208045127	0.09189271842352306	0.4246441796354827	0.03076029104478268	0.08730894320471491	0.4702437789885505	0.12118143355428744	-0.04053778990868668	0.7936297059875072	0.27275951713731106	1.5606597560552808	0.5440511098645346	0.34328137078593135	1.7926027872656538	0.48349147490936006	0.3151684449432439	1.6689242969038576	0.4187806523800897	0.4352476506757137	1.436683111176668	0.6052875904425534	0.4700399244172576	1.1327204632540184	0.639280468543278	0.515885007381085	0.8661528872925994	0.5372661766268895	0.528601044569097	0.7865751959526892	0.4269277457257141	0.5453092154646114	0.7650803006126146	0.469891396533171	0.5180894566913701	0.7428691762573655	0.5286065105798303	0.0807317868829053	1.4930427002157258	0.5429748029949379	-0.023045614522690196	1.2107892005186496	0.5786270278034865	-0.05103105724284651	0.9452348327683269	0.48144793545159315	-0.037371116637832706	0.8427891974634618	0.4555685744078877	-0.0586062745735213	0.8310320137255786	0.41820480361787965	-0.0817419527942288	0.8212623840123244	0.4799648789897861	
304	5.066666666666666	0.3105950126161139	0.8948859905175104	0.5605527211301253	0.29809344196848836	0.4526363039300421	0.6629505134340168	0.2774449528247423	0.03890324402968304	0.7223221842834404	0.24088349430087586	0.06971379621220743	0.4369356516155592	0.3092278410876672	0.05981108822039083	0.4686007642954647	0.24761567206545892	-0.016669545980018026	0.7924352211417964	0.0998556102352666	0.9044524821241673	0.5597164493906369	0.09005728700959281	0.47000369042215795	0.6610934028679055	0.10513345088040371	0.05165055237853357	0.7245202026592552	0.0707875066801554	0.09295384971561138	0.42280934292495276	0.030719978111473853	0.08811979030264291	0.47039954413660157	0.12118885428934428	-0.040099920951100695	0.7933338347731717	0.27244707665076445	1.5613003905489717	0.5439489313910035	0.34012123448340714	1.7938621596184126	0.47995917687775436	0.31437685699633133	1.669578692229195	0.41857027379408057	0.4347667439518575	1.4379111380475493	0.6040761754732262	0.4700452409221868	1.1329714717198633	0.6394229681289884	0.5158915909401509	0.8680847590067515	0.5351116775931235	0.5304113923156185	0.7878965285235998	0.42585010202258256	0.5457280952529986	0.7671825794741597	0.46903551191792947	0.5179743165774608	0.7435519540271907	0.5275572200447453	0.08029574450925205	1.4929007614334218	0.5442027413213666	-0.02367195934164446	1.2112209428203216	0.578433852172651	-0.051623934199475245	0.9452867792918973	0.4811689401256063	-0.037042789838623275	0.8430476911935025	0.456977117958552	-0.058591613120537255	0.8304509202416026	0.4181416642564519	-0.08158612986576144	0.8213538476449799	0.4796115138975853	
305	5.083333333333333	0.31098802922333224	0.8948467363297206	0.5619721783402739	0.298174592700976	0.451929231948402	0.6629832079291088	0.27765532604958476	0.039719917633063075	0.7215033774906142	0.24051550323942927	0.06899136911273765	0.4382277978802228	0.30926957426323537	0.05978346716219578	0.4687453828976528	0.2475810552855836	-0.016235947918658303	0.7925285217972279	0.0997660930606268	0.9044053885689117	0.5601073280436264	0.09007709407082336	0.46999366300202655	0.6611167612956441	0.10521988755089559	0.052283811941165804	0.7239777452243985	0.0713373072523846	0.09424108499678996	0.4208416010002449	0.03084190883009228	0.08979418328905368	0.4701328437197264	0.12123059660178369	-0.039641036066743816	0.7931261214486457	0.2722678693862887	1.5619651527753087	0.5440599759940198	0.3366733601202785	1.795732536544715	0.47569175962183735	0.31331547959173905	1.6704380720410545	0.4181901967080871	0.43408142056635346	1.4394193905031252	0.6021301655031411	0.46995436125095913	1.1329846798815655	0.6393432821576522	0.5161500121686236	0.8701356145351234	0.5316461788646609	0.5321246760415527	0.7893157157803703	0.42387568173314005	0.5461856498419213	0.7687601663773327	0.4679722908941284	0.5178883998699002	0.7446793185546142	0.5245742652386641	0.0801882559486688	1.4928334416208282	0.5444653358769911	-0.024937266637873642	1.2115729915615425	0.5791536477681002	-0.05267389084288214	0.945335539495791	0.4808184022759371	-0.037024472712195514	0.8433100276143305	0.4570024454190838	-0.05855520747954042	0.8296622855263462	0.4180237515786195	-0.08144751202738801	0.8214203094774343	0.47930301431281064	
306	5.1	0.31137937657740317	0.8947782434791068	0.5632932646300559	0.29823222629030854	0.4513073347391389	0.6630219143012895	0.27781401400996947	0.040509902833138045	0.7208369417089383	0.24017111225652613	0.06848442883684461	0.4391140538792985	0.3093152268460965	0.06009845781132993	0.4682996383264085	0.24754212644137272	-0.01578954119672738	0.7926395077424168	0.09973440052175078	0.9043566737451011	0.5602978697026073	0.0900939535187136	0.4699783568681973	0.6611511294841533	0.10522703466540212	0.05258917811251965	0.7238298773290782	0.07192211023752862	0.09524891087623738	0.4192902214848872	0.03109705179062534	0.09185656734995457	0.46953160590822113	0.12129838460140878	-0.03928114858351818	0.7930482328517138	0.27194102025826633	1.5626809030202058	0.544329532821208	0.3329577497651123	1.7983851674736868	0.4712450985006382	0.31198124956351797	1.6714823386804412	0.417623729232517	0.43329469781366947	1.4414216576576848	0.5998330478224204	0.4697503787833686	1.1331626092787577	0.6390516810411089	0.5167964563827927	0.8719793937955853	0.5279103466361327	0.5336335494083783	0.7916795044313331	0.41946156841660065	0.5470524436982149	0.77025796345046	0.4653774634217965	0.5179026307847029	0.7462707608719349	0.5199033059250818	0.08029732416918373	1.4928191396619412	0.544188657763797	-0.02681424682411873	1.2118218161833814	0.5805723701453267	-0.0540412192746066	0.9453239657763755	0.4806272444950964	-0.03727680865139539	0.8434028144531837	0.4559015193984169	-0.0584954209087595	0.8287863404842105	0.41791011260169597	-0.0814976188706597	0.8213075795412423	0.47949922338815315	
307	5.116666666666666	0.3117777354207196	0.8945974862038977	0.5644762612135849	0.2982655590884491	0.4507716446529315	0.6630687486715406	0.2779006617513762	0.04118130524416506	0.7202867752188723	0.23994934489080905	0.06841642184178148	0.43921640982744786	0.3093506100278516	0.06049900441636265	0.46768220626898294	0.24749610213085982	-0.015311796637375814	0.7927600337267414	0.09979353856776939	0.9043775172006256	0.560185148318804	0.09010515970558398	0.4699593882055005	0.6611935032411108	0.10515395701938021	0.05250782025411782	0.7240790867953913	0.0723359693387579	0.09556390150549504	0.4186371596887316	0.03119947765308913	0.09328530385971717	0.46938852332641684	0.12138912858672192	-0.03911348104963466	0.7930969781934233	0.27125623454917774	1.5634138428082565	0.5445874990453116	0.32903535111329274	1.8016524562665357	0.4673660448743928	0.31040182858338106	1.6726194553140075	0.41708994034652275	0.4323598458921303	1.4441480077777764	0.5975553086671611	0.4694376885124434	1.1340099115553304	0.6386014529273526	0.517848962327461	0.873643669365938	0.5247958955564906	0.5348466814575301	0.7953516141041284	0.41216760630148697	0.5483946917628414	0.7722260305108631	0.4602124263381013	0.5181829789516883	0.7482010858786602	0.5145385314340061	0.08042140572624519	1.4928328212503625	0.5438072109551826	-0.02928549758019055	1.2117572326758965	0.5827220788770601	-0.055546138638444605	0.9452646511524797	0.48053163412363203	-0.03778758201113393	0.8433941479878628	0.4537674432868021	-0.058461710775816904	0.8280408754927976	0.4178813545398016	-0.08193549418014456	0.8209097269435286	0.4805361194516118	
